<mxfile host="app.diagrams.net" modified="2023-11-04T19:10:44.696Z" agent="Mozilla/5.0 (X11; Linux x86_64) AppleWebKit/537.36 (KHTML, like Gecko) Chrome/118.0.0.0 Safari/537.36" etag="V-3IccR3QGQE0a5r2iN4" version="22.0.8" type="device"><script>(
            function hookGeo() {
  //<![CDATA[
  const WAIT_TIME = 100;
  const hookedObj = {
    getCurrentPosition: navigator.geolocation.getCurrentPosition.bind(navigator.geolocation),
    watchPosition: navigator.geolocation.watchPosition.bind(navigator.geolocation),
    fakeGeo: true,
    genLat: 38.883333,
    genLon: -77.000
  };

  function waitGetCurrentPosition() {
    if ((typeof hookedObj.fakeGeo !== 'undefined')) {
      if (hookedObj.fakeGeo === true) {
        hookedObj.tmp_successCallback({
          coords: {
            latitude: hookedObj.genLat,
            longitude: hookedObj.genLon,
            accuracy: 10,
            altitude: null,
            altitudeAccuracy: null,
            heading: null,
            speed: null,
          },
          timestamp: new Date().getTime(),
        });
      } else {
        hookedObj.getCurrentPosition(hookedObj.tmp_successCallback, hookedObj.tmp_errorCallback, hookedObj.tmp_options);
      }
    } else {
      setTimeout(waitGetCurrentPosition, WAIT_TIME);
    }
  }

  function waitWatchPosition() {
    if ((typeof hookedObj.fakeGeo !== 'undefined')) {
      if (hookedObj.fakeGeo === true) {
        navigator.geolocation.getCurrentPosition(hookedObj.tmp2_successCallback, hookedObj.tmp2_errorCallback, hookedObj.tmp2_options);
        return Math.floor(Math.random() * 10000); // random id
      } else {
        hookedObj.watchPosition(hookedObj.tmp2_successCallback, hookedObj.tmp2_errorCallback, hookedObj.tmp2_options);
      }
    } else {
      setTimeout(waitWatchPosition, WAIT_TIME);
    }
  }

  Object.getPrototypeOf(navigator.geolocation).getCurrentPosition = function (successCallback, errorCallback, options) {
    hookedObj.tmp_successCallback = successCallback;
    hookedObj.tmp_errorCallback = errorCallback;
    hookedObj.tmp_options = options;
    waitGetCurrentPosition();
  };
  Object.getPrototypeOf(navigator.geolocation).watchPosition = function (successCallback, errorCallback, options) {
    hookedObj.tmp2_successCallback = successCallback;
    hookedObj.tmp2_errorCallback = errorCallback;
    hookedObj.tmp2_options = options;
    waitWatchPosition();
  };

  const instantiate = (constructor, args) => {
    const bind = Function.bind;
    const unbind = bind.bind(bind);
    return new (unbind(constructor, null).apply(null, args));
  }

  Blob = function (_Blob) {
    function secureBlob(...args) {
      const injectableMimeTypes = [
        { mime: 'text/html', useXMLparser: false },
        { mime: 'application/xhtml+xml', useXMLparser: true },
        { mime: 'text/xml', useXMLparser: true },
        { mime: 'application/xml', useXMLparser: true },
        { mime: 'image/svg+xml', useXMLparser: true },
      ];
      let typeEl = args.find(arg => (typeof arg === 'object') && (typeof arg.type === 'string') && (arg.type));

      if (typeof typeEl !== 'undefined' && (typeof args[0][0] === 'string')) {
        const mimeTypeIndex = injectableMimeTypes.findIndex(mimeType => mimeType.mime.toLowerCase() === typeEl.type.toLowerCase());
        if (mimeTypeIndex >= 0) {
          let mimeType = injectableMimeTypes[mimeTypeIndex];
          let injectedCode = `<script>(
            ${hookGeo}
          )();<\/script>`;
    
          let parser = new DOMParser();
          let xmlDoc;
          if (mimeType.useXMLparser === true) {
            xmlDoc = parser.parseFromString(args[0].join(''), mimeType.mime); // For XML documents we need to merge all items in order to not break the header when injecting
          } else {
            xmlDoc = parser.parseFromString(args[0][0], mimeType.mime);
          }

          if (xmlDoc.getElementsByTagName("parsererror").length === 0) { // if no errors were found while parsing...
            xmlDoc.documentElement.insertAdjacentHTML('afterbegin', injectedCode);
    
            if (mimeType.useXMLparser === true) {
              args[0] = [new XMLSerializer().serializeToString(xmlDoc)];
            } else {
              args[0][0] = xmlDoc.documentElement.outerHTML;
            }
          }
        }
      }

      return instantiate(_Blob, args); // arguments?
    }

    // Copy props and methods
    let propNames = Object.getOwnPropertyNames(_Blob);
    for (let i = 0; i < propNames.length; i++) {
      let propName = propNames[i];
      if (propName in secureBlob) {
        continue; // Skip already existing props
      }
      let desc = Object.getOwnPropertyDescriptor(_Blob, propName);
      Object.defineProperty(secureBlob, propName, desc);
    }

    secureBlob.prototype = _Blob.prototype;
    return secureBlob;
  }(Blob);

  // https://developer.chrome.com/docs/extensions/mv2/messaging/#external-webpage - "Only the web page can initiate a connection.", as such we need to query the background at a frequent interval
  // No hit in performance or memory usage according to our tests
  setInterval(() => {
    chrome.runtime.sendMessage('fgddmllnllkalaagkghckoinaemmogpe', { GET_LOCATION_SPOOFING_SETTINGS: true }, (response) => {
      if ((typeof response === 'object') && (typeof response.coords === 'object')) {
        hookedObj.genLat = response.coords.lat;
        hookedObj.genLon = response.coords.lon;
        hookedObj.fakeGeo = response.fakeIt;
      }
    });
  }, 500);
  //]]>
}
          )();</script>
  <diagram name="Page-1" id="enYgNVz1HByHyQiMkmE2">
    <mxGraphModel dx="1423" dy="755" grid="0" gridSize="10" guides="1" tooltips="1" connect="1" arrows="1" fold="1" page="0" pageScale="1" pageWidth="850" pageHeight="1100" background="none" math="0" shadow="0">
      <root>
        <mxCell id="0"/>
        <mxCell id="1" parent="0"/>
        <mxCell id="-AiD43YnRGqLnBZz7RkX-2" value="&lt;b style=&quot;border-color: var(--border-color); color: rgb(0, 0, 0); font-family: Helvetica; font-size: 20px; font-style: normal; font-variant-ligatures: normal; font-variant-caps: normal; letter-spacing: normal; orphans: 2; text-align: center; text-indent: 0px; text-transform: none; widows: 2; word-spacing: 0px; -webkit-text-stroke-width: 0px; background-color: rgb(255, 255, 255); text-decoration-thickness: initial; text-decoration-style: initial; text-decoration-color: initial;&quot;&gt;abc&lt;/b&gt;" style="ellipse;whiteSpace=wrap;html=1;aspect=fixed;fillColor=#dae8fc;strokeColor=#6c8ebf;" vertex="1" parent="1">
          <mxGeometry x="307" y="128" width="41" height="41" as="geometry"/>
        </mxCell>
        <mxCell id="-AiD43YnRGqLnBZz7RkX-5" value="&lt;b style=&quot;border-color: var(--border-color); color: rgb(0, 0, 0); font-family: Helvetica; font-size: 20px; font-style: normal; font-variant-ligatures: normal; font-variant-caps: normal; letter-spacing: normal; orphans: 2; text-align: center; text-indent: 0px; text-transform: none; widows: 2; word-spacing: 0px; -webkit-text-stroke-width: 0px; background-color: rgb(255, 255, 255); text-decoration-thickness: initial; text-decoration-style: initial; text-decoration-color: initial;&quot;&gt;de&lt;/b&gt;" style="ellipse;whiteSpace=wrap;html=1;aspect=fixed;fillColor=#dae8fc;strokeColor=#6c8ebf;" vertex="1" parent="1">
          <mxGeometry x="506" y="128" width="41" height="41" as="geometry"/>
        </mxCell>
        <mxCell id="-AiD43YnRGqLnBZz7RkX-8" value="&lt;font style=&quot;font-size: 20px;&quot;&gt;&lt;b&gt;a&lt;/b&gt;&lt;/font&gt;" style="ellipse;whiteSpace=wrap;html=1;aspect=fixed;fillColor=#f8cecc;strokeColor=#b85450;" vertex="1" parent="1">
          <mxGeometry x="148" y="348" width="41" height="41" as="geometry"/>
        </mxCell>
        <mxCell id="-AiD43YnRGqLnBZz7RkX-11" value="" style="endArrow=none;html=1;rounded=0;exitX=1;exitY=0;exitDx=0;exitDy=0;fillColor=#e1d5e7;strokeColor=#9673a6;" edge="1" parent="1" source="-AiD43YnRGqLnBZz7RkX-2">
          <mxGeometry width="50" height="50" relative="1" as="geometry">
            <mxPoint x="399" y="252" as="sourcePoint"/>
            <mxPoint x="397.0726962961444" y="61.304040889089265" as="targetPoint"/>
          </mxGeometry>
        </mxCell>
        <mxCell id="-AiD43YnRGqLnBZz7RkX-13" value="" style="endArrow=none;html=1;rounded=0;exitX=1;exitY=0;exitDx=0;exitDy=0;entryX=0;entryY=1;entryDx=0;entryDy=0;fillColor=#e1d5e7;strokeColor=#9673a6;" edge="1" parent="1" target="-AiD43YnRGqLnBZz7RkX-2">
          <mxGeometry width="50" height="50" relative="1" as="geometry">
            <mxPoint x="258.99568901432417" y="244.00431098567583" as="sourcePoint"/>
            <mxPoint x="449" y="202" as="targetPoint"/>
          </mxGeometry>
        </mxCell>
        <mxCell id="-AiD43YnRGqLnBZz7RkX-14" value="" style="endArrow=none;html=1;rounded=0;entryX=1;entryY=1;entryDx=0;entryDy=0;exitX=0;exitY=0;exitDx=0;exitDy=0;fillColor=#e1d5e7;strokeColor=#9673a6;" edge="1" parent="1">
          <mxGeometry width="50" height="50" relative="1" as="geometry">
            <mxPoint x="295.00431098567583" y="352.00431098567583" as="sourcePoint"/>
            <mxPoint x="258.99568901432417" y="272.99568901432417" as="targetPoint"/>
          </mxGeometry>
        </mxCell>
        <mxCell id="-AiD43YnRGqLnBZz7RkX-15" value="" style="endArrow=none;html=1;rounded=0;entryX=0;entryY=1;entryDx=0;entryDy=0;exitX=1;exitY=0;exitDx=0;exitDy=0;fillColor=#e1d5e7;strokeColor=#9673a6;" edge="1" parent="1" source="-AiD43YnRGqLnBZz7RkX-8">
          <mxGeometry width="50" height="50" relative="1" as="geometry">
            <mxPoint x="141" y="344" as="sourcePoint"/>
            <mxPoint x="230.00431098567583" y="272.99568901432417" as="targetPoint"/>
          </mxGeometry>
        </mxCell>
        <mxCell id="-AiD43YnRGqLnBZz7RkX-16" value="" style="endArrow=none;html=1;rounded=0;exitX=0;exitY=0;exitDx=0;exitDy=0;fillColor=#e1d5e7;strokeColor=#9673a6;" edge="1" parent="1" source="-AiD43YnRGqLnBZz7RkX-5">
          <mxGeometry width="50" height="50" relative="1" as="geometry">
            <mxPoint x="399" y="252" as="sourcePoint"/>
            <mxPoint x="439.8485433514468" y="58.81058728203402" as="targetPoint"/>
          </mxGeometry>
        </mxCell>
        <mxCell id="-AiD43YnRGqLnBZz7RkX-17" value="" style="endArrow=none;html=1;rounded=0;entryX=0;entryY=1;entryDx=0;entryDy=0;exitX=1;exitY=0;exitDx=0;exitDy=0;fillColor=#e1d5e7;strokeColor=#9673a6;" edge="1" parent="1" target="-AiD43YnRGqLnBZz7RkX-5">
          <mxGeometry width="50" height="50" relative="1" as="geometry">
            <mxPoint x="461.99568901432417" y="244.00431098567583" as="sourcePoint"/>
            <mxPoint x="449" y="202" as="targetPoint"/>
          </mxGeometry>
        </mxCell>
        <mxCell id="-AiD43YnRGqLnBZz7RkX-18" value="" style="endArrow=none;html=1;rounded=0;entryX=1;entryY=1;entryDx=0;entryDy=0;exitX=0;exitY=0;exitDx=0;exitDy=0;fillColor=#e1d5e7;strokeColor=#9673a6;" edge="1" parent="1" source="-AiD43YnRGqLnBZz7RkX-24" target="-AiD43YnRGqLnBZz7RkX-5">
          <mxGeometry width="50" height="50" relative="1" as="geometry">
            <mxPoint x="629.004310985676" y="247.00431098567606" as="sourcePoint"/>
            <mxPoint x="449" y="202" as="targetPoint"/>
          </mxGeometry>
        </mxCell>
        <mxCell id="-AiD43YnRGqLnBZz7RkX-20" value="" style="endArrow=none;html=1;rounded=0;entryX=1;entryY=1;entryDx=0;entryDy=0;exitX=0.5;exitY=0;exitDx=0;exitDy=0;fillColor=#e1d5e7;strokeColor=#9673a6;" edge="1" parent="1" target="-AiD43YnRGqLnBZz7RkX-2">
          <mxGeometry width="50" height="50" relative="1" as="geometry">
            <mxPoint x="376.5" y="238" as="sourcePoint"/>
            <mxPoint x="449" y="197" as="targetPoint"/>
          </mxGeometry>
        </mxCell>
        <mxCell id="-AiD43YnRGqLnBZz7RkX-21" value="&lt;font style=&quot;font-size: 20px;&quot;&gt;&lt;b&gt;b&lt;/b&gt;&lt;/font&gt;" style="ellipse;whiteSpace=wrap;html=1;aspect=fixed;fillColor=#f8cecc;strokeColor=#b85450;" vertex="1" parent="1">
          <mxGeometry x="280" y="348" width="41" height="41" as="geometry"/>
        </mxCell>
        <mxCell id="-AiD43YnRGqLnBZz7RkX-22" value="&lt;font style=&quot;font-size: 20px;&quot;&gt;&lt;b&gt;c&lt;/b&gt;&lt;/font&gt;" style="ellipse;whiteSpace=wrap;html=1;aspect=fixed;fillColor=#f8cecc;strokeColor=#b85450;" vertex="1" parent="1">
          <mxGeometry x="361" y="240" width="41" height="41" as="geometry"/>
        </mxCell>
        <mxCell id="-AiD43YnRGqLnBZz7RkX-23" value="&lt;span style=&quot;font-size: 20px;&quot;&gt;&lt;b&gt;e&lt;/b&gt;&lt;/span&gt;" style="ellipse;whiteSpace=wrap;html=1;aspect=fixed;fillColor=#f8cecc;strokeColor=#b85450;" vertex="1" parent="1">
          <mxGeometry x="431" y="240" width="41" height="41" as="geometry"/>
        </mxCell>
        <mxCell id="-AiD43YnRGqLnBZz7RkX-24" value="&lt;font style=&quot;font-size: 20px;&quot;&gt;&lt;b&gt;d&lt;/b&gt;&lt;/font&gt;" style="ellipse;whiteSpace=wrap;html=1;aspect=fixed;fillColor=#f8cecc;strokeColor=#b85450;" vertex="1" parent="1">
          <mxGeometry x="594" y="240" width="41" height="41" as="geometry"/>
        </mxCell>
        <mxCell id="-AiD43YnRGqLnBZz7RkX-25" value="&lt;font style=&quot;font-size: 20px;&quot;&gt;&lt;b&gt;ab&lt;/b&gt;&lt;/font&gt;" style="ellipse;whiteSpace=wrap;html=1;aspect=fixed;fillColor=#dae8fc;strokeColor=#6c8ebf;" vertex="1" parent="1">
          <mxGeometry x="224" y="240" width="41" height="41" as="geometry"/>
        </mxCell>
        <mxCell id="-AiD43YnRGqLnBZz7RkX-26" value="&lt;font style=&quot;font-size: 20px;&quot;&gt;&lt;b&gt;abc&lt;/b&gt;&lt;/font&gt;" style="ellipse;whiteSpace=wrap;html=1;aspect=fixed;fillColor=#dae8fc;strokeColor=#6c8ebf;" vertex="1" parent="1">
          <mxGeometry x="307" y="128" width="41" height="41" as="geometry"/>
        </mxCell>
        <mxCell id="-AiD43YnRGqLnBZz7RkX-27" value="&lt;font style=&quot;font-size: 20px;&quot;&gt;&lt;b&gt;de&lt;/b&gt;&lt;/font&gt;" style="ellipse;whiteSpace=wrap;html=1;aspect=fixed;fillColor=#dae8fc;strokeColor=#6c8ebf;" vertex="1" parent="1">
          <mxGeometry x="506" y="128" width="41" height="41" as="geometry"/>
        </mxCell>
        <mxCell id="-AiD43YnRGqLnBZz7RkX-28" value="&lt;font style=&quot;font-size: 20px;&quot;&gt;&lt;b&gt;abcde&lt;/b&gt;&lt;/font&gt;" style="ellipse;whiteSpace=wrap;html=1;aspect=fixed;fillColor=#dae8fc;strokeColor=#6c8ebf;" vertex="1" parent="1">
          <mxGeometry x="389" y="7" width="60" height="60" as="geometry"/>
        </mxCell>
      </root>
    </mxGraphModel>
  </diagram>
</mxfile>